<svg width="41" height="42" viewBox="0 0 41 42" fill="none" xmlns="http://www.w3.org/2000/svg">
<g clip-path="url(#clip0_589_2004)">
<path d="M28.8872 31.1996L38.8111 41.1256C39.0521 41.3654 39.3783 41.5 39.7183 41.5C40.0584 41.5 40.3846 41.3654 40.6256 41.1256C40.8654 40.8846 41 40.5584 41 40.2184C41 39.8784 40.8654 39.5522 40.6256 39.3111L31.4886 30.177C37.5885 23.1367 37.2989 12.4341 30.6121 5.74752C23.6152 -1.24917 12.2356 -1.24917 5.24384 5.74752C-1.74795 12.7416 -1.74795 24.1234 5.24384 31.1201C6.90581 32.7908 8.88258 34.1154 11.0598 35.0172C13.237 35.919 15.5714 36.3802 17.928 36.374C18.2678 36.374 18.5938 36.239 18.8341 35.9987C19.0744 35.7584 19.2095 35.4325 19.2095 35.0926C19.2095 34.7527 19.0744 34.4268 18.8341 34.1865C18.5938 33.9462 18.2678 33.8112 17.928 33.8112C15.908 33.8167 13.9071 33.4215 12.0409 32.6486C10.1747 31.8757 8.48031 30.7403 7.05586 29.3082C4.17766 26.421 2.56147 22.5105 2.56147 18.4338C2.56147 14.3571 4.17766 10.4467 7.05586 7.55948C9.94095 4.67918 13.8512 3.06144 17.928 3.06144C22.0048 3.06144 25.915 4.67918 28.8001 7.55948C31.6783 10.4467 33.2945 14.3571 33.2945 18.4338C33.2945 22.5105 31.6783 26.421 28.8001 29.3082C28.6741 29.4342 28.5758 29.5851 28.5114 29.7512C28.4471 29.9174 28.4181 30.0951 28.4263 30.2731C28.4345 30.4511 28.4797 30.6254 28.5591 30.7849C28.6384 30.9445 28.7502 31.0857 28.8872 31.1996Z" fill="black"/>
</g>
<defs>
<clipPath id="clip0_589_2004">
<rect width="41" height="41" fill="white" transform="translate(0 0.5)"/>
</clipPath>
</defs>
</svg>
