<svg xmlns="http://www.w3.org/2000/svg" width="54" height="46" fill="none" viewBox="0 0 54 46"><path fill="#000" fill-rule="evenodd" d="M35.9997 4.71875C36.2981 4.71875 36.5843 4.86691 36.7952 5.13063C37.0062 5.39435 37.1247 5.75204 37.1247 6.125V36.4813L46.4547 24.8188C46.5577 24.6806 46.6819 24.5698 46.8199 24.4929C46.9579 24.4161 47.1069 24.3747 47.258 24.3714C47.409 24.3681 47.5591 24.4028 47.6991 24.4735C47.8392 24.5442 47.9665 24.6495 48.0733 24.7831C48.1801 24.9166 48.2643 25.0757 48.3209 25.2508C48.3775 25.4259 48.4053 25.6134 48.4026 25.8022C48.4 25.991 48.3669 26.1773 48.3054 26.3498C48.2439 26.5223 48.1553 26.6775 48.0447 26.8063L36.7947 40.8688C36.5838 41.1321 36.2979 41.28 35.9997 41.28C35.7016 41.28 35.4157 41.1321 35.2047 40.8688L23.9547 26.8063C23.8442 26.6775 23.7556 26.5223 23.6941 26.3498C23.6326 26.1773 23.5995 25.991 23.5969 25.8022C23.5942 25.6134 23.622 25.4259 23.6786 25.2508C23.7351 25.0757 23.8194 24.9166 23.9262 24.7831C24.033 24.6495 24.1603 24.5442 24.3003 24.4735C24.4404 24.4028 24.5905 24.3681 24.7415 24.3714C24.8926 24.3747 25.0416 24.4161 25.1795 24.4929C25.3175 24.5698 25.4417 24.6806 25.5447 24.8188L34.8747 36.4813V6.125C34.8747 5.75204 34.9933 5.39435 35.2042 5.13063C35.4152 4.86691 35.7014 4.71875 35.9997 4.71875Z" clip-rule="evenodd"/><path fill="#000" fill-rule="evenodd" d="M18.0003 41.2812C17.7019 41.2812 17.4157 41.1331 17.2048 40.8694C16.9938 40.6056 16.8753 40.248 16.8753 39.875L16.8753 9.51875L7.54526 21.1812C7.44227 21.3194 7.31807 21.4302 7.18007 21.5071C7.04207 21.5839 6.8931 21.6253 6.74204 21.6286C6.59099 21.6319 6.44094 21.5972 6.30086 21.5265C6.16078 21.4557 6.03353 21.3505 5.9267 21.2169C5.81987 21.0834 5.73566 20.9243 5.67908 20.7492C5.62249 20.5741 5.59471 20.3866 5.59737 20.1978C5.60004 20.0089 5.6331 19.8227 5.69459 19.6502C5.75607 19.4777 5.84473 19.3225 5.95526 19.1937L17.2053 5.13124C17.4162 4.8679 17.7021 4.71998 18.0003 4.71998C18.2984 4.71998 18.5843 4.8679 18.7953 5.13124L30.0453 19.1937C30.1558 19.3225 30.2444 19.4777 30.3059 19.6502C30.3674 19.8227 30.4005 20.009 30.4031 20.1978C30.4058 20.3866 30.378 20.5741 30.3214 20.7492C30.2649 20.9243 30.1806 21.0834 30.0738 21.2169C29.967 21.3505 29.8397 21.4558 29.6997 21.5265C29.5596 21.5972 29.4095 21.6319 29.2585 21.6286C29.1074 21.6253 28.9585 21.5839 28.8205 21.5071C28.6825 21.4302 28.5583 21.3194 28.4553 21.1812L19.1253 9.51875L19.1253 39.875C19.1253 40.248 19.0067 40.6056 18.7958 40.8694C18.5848 41.1331 18.2986 41.2812 18.0003 41.2812Z" clip-rule="evenodd"/></svg>